<svg id="Layer_1" data-name="Layer 1" xmlns="http://www.w3.org/2000/svg" viewBox="0 0 33.97 40"><defs><style>.cls-1{fill:#4a8098;}.cls-2{fill:#fff;}</style></defs><title>Press-Office-Small-Icon</title><polygon class="cls-1" points="33.97 0 -0.07 0 -0.07 28.8 -0.07 30.87 -0.07 40 9.1 30.87 33.97 30.87 33.97 0"/><path class="cls-2" d="M9.54,23c-.13-.14-3.33-3.51-3.33-7.3A10.94,10.94,0,0,1,9.58,8.34L10.63,9.5l-.53-.58.53.58a9.45,9.45,0,0,0-2.86,6.17c0,3.16,2.87,6.19,2.9,6.22Z"/><path class="cls-2" d="M13.07,20.94a8.32,8.32,0,0,1-2.39-5.27,7.15,7.15,0,0,1,2.43-5.06l1,1.2-.5-.6.5.6a5.64,5.64,0,0,0-1.87,3.86,6.76,6.76,0,0,0,1.92,4.15Z"/><path class="cls-2" d="M24.47,23c.14-.14,3.34-3.51,3.34-7.3,0-4.2-3.24-7.2-3.37-7.33L23.38,9.5l.53-.58-.53.58s2.87,2.67,2.87,6.17c0,3.16-2.87,6.19-2.9,6.22Z"/><path class="cls-2" d="M21,20.94a8.32,8.32,0,0,0,2.39-5.27,7.14,7.14,0,0,0-2.44-5.06l-1,1.2.5-.6-.5.6a5.63,5.63,0,0,1,1.88,3.86,6.82,6.82,0,0,1-1.92,4.15Z"/></svg>